# xmcd CD database file
#
# Track frame offsets:
#	150
#	18215
#	41697
#	59722
#
# Disc length: 1106 seconds
#
# Revision: 1
# Processed by: cddbd v1.5PL3 Copyright (c) Steve Scherf et al.
# Submitted via: CDex 1.51
#
DISCID=2f045004
DTITLE=Bennie K - School Girl (Single)
DYEAR=2001
DGENRE=JPop
TTITLE0=School Girl
TTITLE1=Season
TTITLE2=School Girl (Instrumental)
TTITLE3=Season (Instrumental)
EXTD=YEAR: 2001
EXTT0=
EXTT1=
EXTT2=
EXTT3=
PLAYORDER=
